#!OML:ASF H:\Dans Jumps\Project 1\Capture day 1\Session 1\subject.ASF
:FULLY-SPECIFIED
:DEGREES
479
root 0.564129 17.603 2.10708 6.40283 -0.483096 -1.70777
lowerback 2.00338 -0.280355 -0.656509
upperback 3.1605 -0.405633 1.74978
thorax 2.13673 -0.239876 2.16491
lowerneck -11.8577 -0.0595538 -2.06414
upperneck 33.7561 -0.0983116 1.57707
head 13.31 -0.10318 0.968955
rclavicle 3.77691e-015 -1.13307e-014
rhumerus -21.1687 -5.57155 -85.4432
rradius 32.527
rwrist 23.8504
rhand -20.6738 -25.7808
rfingers 7.12502
rthumb 5.68934 -55.6845
lclavicle 3.77691e-015 -1.13307e-014
lhumerus -17.3248 -4.8378 86.7282
lradius 24.2096
lwrist 14.9517
lhand -28.9337 -7.36382
lfingers 7.12502
lthumb -2.28772 22.6037
rfemur -19.7137 -2.80654 20.1138
rtibia 26.7616
rfoot -11.9325 -2.42505
rtoes 12.5017
lfemur -18.8348 8.78864 -17.9671
ltibia 24.8796
lfoot -9.68087 3.95135
ltoes -3.70099
480
root 0.560926 17.6047 2.11907 6.42665 -0.479546 -1.7153
lowerback 1.99771 -0.269052 -0.650192
upperback 3.16567 -0.390635 1.75183
thorax 2.14456 -0.232352 2.16343
lowerneck -11.8417 -0.060355 -2.07784
upperneck 33.8237 -0.105475 1.6039
head 13.336 -0.10481 0.981625
rclavicle -7.15625e-015 1.41137e-014
rhumerus -21.4491 -5.78284 -85.248
rradius 32.1991
rwrist 24.1023
rhand -20.5384 -25.7822
rfingers 7.12502
rthumb 5.82004 -55.6822
lclavicle -7.15625e-015 1.41137e-014
lhumerus -17.63 -4.81731 86.6855
lradius 24.0676
lwrist 14.7996
lhand -28.851 -7.22893
lfingers 7.12502
lthumb -2.20782 22.7394
rfemur -19.6669 -2.8122 20.1326
rtibia 26.706
rfoot -11.9373 -2.41429
rtoes 12.5145
lfemur -18.7876 8.75875 -17.9431
ltibia 24.8269
lfoot -9.68081 3.98902
ltoes -3.71319
481
root 0.55782 17.6061 2.13091 6.44684 -0.488301 -1.71853
lowerback 1.99332 -0.255384 -0.64831
upperback 3.17375 -0.372506 1.75161
thorax 2.15456 -0.22337 2.16212
lowerneck -11.8201 -0.0603812 -2.09216
upperneck 33.8971 -0.111071 1.62928
head 13.3633 -0.106092 0.994118
rclavicle -4.96962e-017 -8.34896e-015
rhumerus -21.7121 -6.02943 -85.0416
rradius 31.8318
rwrist 24.3814
rhand -20.4107 -25.7811
rfingers 7.12502
rthumb 5.94327 -55.6777
lclavicle -4.96962e-017 -8.34896e-015
lhumerus -17.9356 -4.82612 86.6492
lradius 23.8961
lwrist 14.6635
lhand -28.7638 -7.09415
lfingers 7.12502
lthumb -2.1236 22.875
rfemur -19.6245 -2.8166 20.1462
rtibia 26.6605
rfoot -11.9436 -2.39303
rtoes 12.5201
lfemur -18.7345 8.73245 -17.9235
ltibia 24.7727
lfoot -9.67785 4.03459
ltoes -3.72502
482
root 0.554913 17.6075 2.14263 6.46338 -0.507808 -1.70808
lowerback 1.99005 -0.239095 -0.65823
upperback 3.18544 -0.350891 1.74574
thorax 2.16754 -0.212885 2.16163
lowerneck -11.7956 -0.0607028 -2.1015
upperneck 33.9748 -0.116242 1.64787
head 13.392 -0.107483 1.00317
rclavicle -7.15625e-015 1.96797e-014
rhumerus -21.9541 -6.32933 -84.8216
rradius 31.4252
rwrist 24.7032
rhand -20.2936 -25.7704
rfingers 7.12502
rthumb 6.05635 -55.6639
lclavicle -7.15625e-015 1.96797e-014
lhumerus -18.2382 -4.85377 86.6177
lradius 23.6977
lwrist 14.5285
lhand -28.6704 -6.92644
lfingers 7.12502
lthumb -2.03339 23.0436
rfemur -19.5856 -2.82165 20.1441
rtibia 26.6246
rfoot -11.9516 -2.36325
rtoes 12.5012
lfemur -18.6721 8.71154 -17.9196
ltibia 24.7115
lfoot -9.67419 4.08244
ltoes -3.72823
483
root 0.552249 17.6089 2.15428 6.47688 -0.535582 -1.68727
lowerback 1.98577 -0.219957 -0.675858
upperback 3.20213 -0.325489 1.73484
thorax 2.18609 -0.200693 2.16029
lowerneck -11.7663 -0.0624595 -2.10532
upperneck 34.0509 -0.122791 1.65974
head 13.4189 -0.109652 1.00837
rclavicle 9.44227e-016 1.05356e-014
rhumerus -22.1724 -6.69598 -84.5856
rradius 30.981
rwrist 25.0747
rhand -20.1768 -25.7553
rfingers 7.12502
rthumb 6.16913 -55.6455
lclavicle 9.44227e-016 1.05356e-014
lhumerus -18.5358 -4.89203 86.5911
lradius 23.4739
lwrist 14.3805
lhand -28.5841 -6.77143
lfingers 7.12502
lthumb -1.95006 23.1994
rfemur -19.5483 -2.82702 20.1296
rtibia 26.5957
rfoot -11.9608 -2.32656
rtoes 12.4727
lfemur -18.6006 8.69928 -17.9282
ltibia 24.6423
lfoot -9.67079 4.12736
ltoes -3.72447
484
root 0.54973 17.6105 2.16579 6.48965 -0.570679 -1.66035
lowerback 1.97982 -0.197954 -0.697817
upperback 3.22244 -0.296267 1.72049
thorax 2.20916 -0.186709 2.15785
lowerneck -11.7336 -0.0650712 -2.10204
upperneck 34.126 -0.129429 1.66254
head 13.4448 -0.112132 1.00871
rclavicle -4.42296e-015 1.49089e-014
rhumerus -22.3814 -7.11267 -84.3346
rradius 30.5257
rwrist 25.4795
rhand -20.0712 -25.7317
rfingers 7.12502
rthumb 6.27111 -55.6188
lclavicle -4.42296e-015 1.49089e-014
lhumerus -18.8333 -4.92866 86.5691
lradius 23.2294
lwrist 14.2032
lhand -28.5178 -6.67507
lfingers 7.12502
lthumb -1.886 23.2963
rfemur -19.5137 -2.82787 20.1077
rtibia 26.5708
rfoot -11.9695 -2.28856
rtoes 12.4453
lfemur -18.5235 8.6972 -17.9445
ltibia 24.5654
lfoot -9.66764 4.16735
ltoes -3.72301
485
root 0.547237 17.6121 2.17702 6.50362 -0.609029 -1.63572
lowerback 1.97044 -0.175464 -0.71779
upperback 3.2465 -0.266431 1.70672
thorax 2.23797 -0.172455 2.15488
lowerneck -11.7 -0.0667942 -2.09483
upperneck 34.2 -0.1332 1.65773
head 13.47 -0.11385 1.00573
rclavicle 1.59028e-015 -4.77083e-015
rhumerus -22.5845 -7.56869 -84.0692
rradius 30.069
rwrist 25.9095
rhand -19.9626 -25.7127
rfingers 7.12502
rthumb 6.37592 -55.5967
lclavicle 1.59028e-015 -4.77083e-015
lhumerus -19.1342 -4.96065 86.5531
lradius 22.9702
lwrist 14.001
lhand -28.4665 -6.6197
lfingers 7.12502
lthumb -1.83651 23.3521
rfemur -19.482 -2.82045 20.0886
rtibia 26.5454
rfoot -11.9747 -2.25913
rtoes 12.4006
lfemur -18.447 8.70466 -17.959
ltibia 24.485
lfoot -9.66363 4.19975
ltoes -3.72019
486
root 0.544728 17.6139 2.18795 6.51837 -0.648457 -1.61457
lowerback 1.95963 -0.152602 -0.734157
upperback 3.2741 -0.236105 1.69269
thorax 2.2712 -0.157934 2.14966
lowerneck -11.6742 -0.0668607 -2.0781
upperneck 34.2769 -0.133469 1.64302
head 13.4982 -0.114108 0.997724
rclavicle 2.13694e-015 1.43125e-014
rhumerus -22.7786 -8.07464 -83.7905
rradius 29.6045
rwrist 26.3685
rhand -19.847 -25.7092
rfingers 7.12502
rthumb 6.48749 -55.5899
lclavicle 2.13694e-015 1.43125e-014
lhumerus -19.4405 -4.98626 86.5404
lradius 22.7034
lwrist 13.7659
lhand -28.4208 -6.58409
lfingers 7.12502
lthumb -1.79228 23.3881
rfemur -19.4501 -2.80394 20.0736
rtibia 26.5156
rfoot -11.9764 -2.24019
rtoes 12.3631
lfemur -18.3727 8.71939 -17.9699
ltibia 24.4044
lfoot -9.66029 4.22575
ltoes -3.72736
